<svg xmlns="http://www.w3.org/2000/svg" width="16" height="16">
  <path d="M 5 0 C 4.446 0 4 0.446 4 1 L 4 2 L 3 2 C 2.446 2 2 2.446 2 3 L 2 13 C 2 13.554 2.4461129 13.988814 3 14 L 8 14 L 8 15 L 3 15 L 3 16 L 10 16 L 10 15 L 10 14 L 10 13 L 3 13 L 3 3 L 4 3 L 4 11 C 4 11.554 4.446 12 5 12 L 10 12 L 10 10 L 14 10 L 14 1 C 14 0.446 13.554 0 13 0 L 5 0 z M 9 1 C 11.216 1 13 2.784 13 5 C 13 7.216 11.216 9 9 9 L 5 9 L 5 5 C 5 2.784 6.784 1 9 1 z M 9 3 C 7.892 3 7 3.892 7 5 C 7 6.108 7.892 7 9 7 C 10.108 7 11 6.108 11 5 C 11 3.892 10.108 3 9 3 z M 11 11 L 11 16 L 16 16 L 16 11 L 11 11 z M 12 12 L 13 12 L 13 13 L 14 13 L 14 12 L 15 12 L 15 14 L 14 14 L 14 15 L 13 15 L 13 14 L 12 14 L 12 12 z " fill="#c0bfbc" />
</svg>
